<svg width="3869" height="540" xmlns="http://www.w3.org/2000/svg" xmlns:xlink="http://www.w3.org/1999/xlink" xml:space="preserve" overflow="hidden"><g transform="translate(-382 -919)"><path d="M385.5 1076.8C385.5 1061.17 398.17 1048.5 413.8 1048.5L843.2 1048.5C858.83 1048.5 871.5 1061.17 871.5 1076.8L871.5 1303.2C871.5 1318.83 858.83 1331.5 843.2 1331.5L413.8 1331.5C398.17 1331.5 385.5 1318.83 385.5 1303.2Z" stroke="#FFFFFF" stroke-width="6.875" stroke-miterlimit="8" fill="#7030A0" fill-rule="evenodd"/><text fill="#FFFFFF" font-family="Aptos,Aptos_MSFontService,sans-serif" font-weight="400" font-size="69" transform="matrix(1 0 0 1 558.073 1208)">Lucy</text><path d="M916 1155.4 964 1155.4 964 1133 1012 1189 964 1245 964 1222.6 916 1222.6Z" fill-rule="evenodd"/><path d="M1051.5 1076.8C1051.5 1061.17 1064.17 1048.5 1079.8 1048.5L1554.2 1048.5C1569.83 1048.5 1582.5 1061.17 1582.5 1076.8L1582.5 1303.2C1582.5 1318.83 1569.83 1331.5 1554.2 1331.5L1079.8 1331.5C1064.17 1331.5 1051.5 1318.83 1051.5 1303.2Z" stroke="#FFFFFF" stroke-width="6.875" stroke-miterlimit="8" fill="#7030A0" fill-rule="evenodd"/><text fill="#FFFFFF" font-family="Aptos,Aptos_MSFontService,sans-serif" font-weight="400" font-size="69" transform="matrix(1 0 0 1 1119.28 1208)">DNS Request</text><path d="M1627 1155.4 1675 1155.4 1675 1133 1723 1189 1675 1245 1675 1222.6 1627 1222.6Z" fill-rule="evenodd"/><path d="M1762.5 1076.8C1762.5 1061.17 1775.17 1048.5 1790.8 1048.5L2395.2 1048.5C2410.83 1048.5 2423.5 1061.17 2423.5 1076.8L2423.5 1303.2C2423.5 1318.83 2410.83 1331.5 2395.2 1331.5L1790.8 1331.5C1775.17 1331.5 1762.5 1318.83 1762.5 1303.2Z" stroke="#FFFFFF" stroke-width="6.875" stroke-miterlimit="8" fill="#FF0000" fill-rule="evenodd"/><text fill="#FFFFFF" font-family="Aptos,Aptos_MSFontService,sans-serif" font-weight="700" font-size="69" transform="matrix(1 0 0 1 1812.93 1170)">Andrew </text><text fill="#FFFFFF" font-family="Aptos,Aptos_MSFontService,sans-serif" font-weight="400" font-size="69" transform="matrix(1 0 0 1 2051.86 1170)">(intercepts </text><text fill="#FFFFFF" font-family="Aptos,Aptos_MSFontService,sans-serif" font-weight="400" font-size="69" transform="matrix(1 0 0 1 1890.16 1245)">and modifies)</text><path d="M2468 1155.4 2516 1155.4 2516 1133 2564 1189 2516 1245 2516 1222.6 2468 1222.6Z" fill-rule="evenodd"/><path d="M2603.5 1076.8C2603.5 1061.17 2616.17 1048.5 2631.8 1048.5L3302.2 1048.5C3317.83 1048.5 3330.5 1061.17 3330.5 1076.8L3330.5 1303.2C3330.5 1318.83 3317.83 1331.5 3302.2 1331.5L2631.8 1331.5C2616.17 1331.5 2603.5 1318.83 2603.5 1303.2Z" stroke="#FFFFFF" stroke-width="6.875" stroke-miterlimit="8" fill="#7030A0" fill-rule="evenodd"/><text fill="#FFFFFF" font-family="Aptos,Aptos_MSFontService,sans-serif" font-weight="400" font-size="69" transform="matrix(1 0 0 1 2667.95 1208)">Fake DNS Response</text><path d="M3375 1155.4 3423 1155.4 3423 1133 3471 1189 3423 1245 3423 1222.6 3375 1222.6Z" fill-rule="evenodd"/><path d="M3510.5 1076.8C3510.5 1061.17 3523.17 1048.5 3538.8 1048.5L4219.2 1048.5C4234.83 1048.5 4247.5 1061.17 4247.5 1076.8L4247.5 1303.2C4247.5 1318.83 4234.83 1331.5 4219.2 1331.5L3538.8 1331.5C3523.17 1331.5 3510.5 1318.83 3510.5 1303.2Z" stroke="#FFFFFF" stroke-width="6.875" stroke-miterlimit="8" fill="#7030A0" fill-rule="evenodd"/><text fill="#FFFFFF" font-family="Aptos,Aptos_MSFontService,sans-serif" font-weight="400" font-size="69" transform="matrix(1 0 0 1 3585.77 1170)">Malicious IP of Fake </text><text fill="#FFFFFF" font-family="Aptos,Aptos_MSFontService,sans-serif" font-weight="400" font-size="69" transform="matrix(1 0 0 1 3803.69 1245)">Bank</text></g></svg>