<svg width="3134" height="506" xmlns="http://www.w3.org/2000/svg" xmlns:xlink="http://www.w3.org/1999/xlink" xml:space="preserve" overflow="hidden"><g transform="translate(-720 -413)"><path d="M723.5 567.3C723.5 553.603 734.604 542.5 748.3 542.5L1303.7 542.5C1317.4 542.5 1328.5 553.603 1328.5 567.3L1328.5 765.7C1328.5 779.397 1317.4 790.5 1303.7 790.5L748.3 790.5C734.604 790.5 723.5 779.397 723.5 765.7Z" stroke="#FFFFFF" stroke-width="6.875" stroke-miterlimit="8" fill="#7030A0" fill-rule="evenodd"/><text fill="#FFFFFF" font-family="Aptos,Aptos_MSFontService,sans-serif" font-weight="400" font-size="87" transform="matrix(1 0 0 1 937.281 690)">Lucy</text><path d="M1370 635.4 1414 635.4 1414 615 1458 666 1414 717 1414 696.6 1370 696.6Z" fill-rule="evenodd"/><path d="M1494.5 567.3C1494.5 553.603 1505.6 542.5 1519.3 542.5L2104.7 542.5C2118.4 542.5 2129.5 553.603 2129.5 567.3L2129.5 765.7C2129.5 779.397 2118.4 790.5 2104.7 790.5L1519.3 790.5C1505.6 790.5 1494.5 779.397 1494.5 765.7Z" stroke="#FFFFFF" stroke-width="6.875" stroke-miterlimit="8" fill="#7030A0" fill-rule="evenodd"/><text fill="#FFFFFF" font-family="Aptos,Aptos_MSFontService,sans-serif" font-weight="400" font-size="87" transform="matrix(1 0 0 1 1561.59 690)">DNS Request</text><path d="M2171 635.4 2214.5 635.4 2214.5 615 2258 666 2214.5 717 2214.5 696.6 2171 696.6Z" fill-rule="evenodd"/><path d="M2295.5 567.3C2295.5 553.603 2306.6 542.5 2320.3 542.5L2940.7 542.5C2954.4 542.5 2965.5 553.603 2965.5 567.3L2965.5 765.7C2965.5 779.397 2954.4 790.5 2940.7 790.5L2320.3 790.5C2306.6 790.5 2295.5 779.397 2295.5 765.7Z" stroke="#FFFFFF" stroke-width="6.875" stroke-miterlimit="8" fill="#7030A0" fill-rule="evenodd"/><text fill="#FFFFFF" font-family="Aptos,Aptos_MSFontService,sans-serif" font-weight="400" font-size="83" transform="matrix(1 0 0 1 2427.59 688)">DNS Server</text><path d="M3007 635.4 3050.5 635.4 3050.5 615 3094 666 3050.5 717 3050.5 696.6 3007 696.6Z" fill-rule="evenodd"/><path d="M3131.5 567.3C3131.5 553.603 3142.6 542.5 3156.3 542.5L3825.7 542.5C3839.4 542.5 3850.5 553.603 3850.5 567.3L3850.5 765.7C3850.5 779.397 3839.4 790.5 3825.7 790.5L3156.3 790.5C3142.6 790.5 3131.5 779.397 3131.5 765.7Z" stroke="#FFFFFF" stroke-width="6.875" stroke-miterlimit="8" fill="#7030A0" fill-rule="evenodd"/><text fill="#FFFFFF" font-family="Aptos,Aptos_MSFontService,sans-serif" font-weight="400" font-size="83" transform="matrix(1 0 0 1 3226.3 688)">Real IP of Bank</text></g></svg>